<?xml version="1.0" encoding="utf-8"?>
<!-- Generator: Adobe Illustrator 15.0.0, SVG Export Plug-In . SVG Version: 6.00 Build 0)  -->
<!DOCTYPE svg PUBLIC "-//W3C//DTD SVG 1.1//EN" "http://www.w3.org/Graphics/SVG/1.1/DTD/svg11.dtd">
<svg version="1.1" id="Layer_1" xmlns="http://www.w3.org/2000/svg" xmlns:xlink="http://www.w3.org/1999/xlink" x="0px" y="0px"
	 width="14px" height="14px" viewBox="0 0 14 14" enable-background="new 0 0 14 14" xml:space="preserve">
<g>
	<circle fill="#BA6D85" fill-opacity="0.6" stroke="#BA6D85" stroke-miterlimit="10" cx="7" cy="7" r="6"/>
	
		<circle fill="#CB9998" fill-opacity="0.8" stroke="#BA6D85" stroke-width="0.5" stroke-miterlimit="10" cx="6.981" cy="7" r="4.8"/>
	<circle fill="#E0CBAC" cx="6.963" cy="7" r="3.6"/>
	<circle fill="#DFCAAB" cx="6.963" cy="6.999" r="3.569"/>
	<circle fill="#DEC8AB" cx="6.964" cy="6.998" r="3.539"/>
	<circle fill="#DDC6AA" cx="6.964" cy="6.997" r="3.508"/>
	<circle fill="#DDC4A9" cx="6.965" cy="6.996" r="3.478"/>
	<circle fill="#DCC3A9" cx="6.965" cy="6.995" r="3.447"/>
	<circle fill="#DBC1A8" cx="6.966" cy="6.994" r="3.417"/>
	<circle fill="#DABFA7" cx="6.967" cy="6.993" r="3.386"/>
	<circle fill="#DABEA7" cx="6.967" cy="6.992" r="3.356"/>
	<circle fill="#D9BCA6" cx="6.968" cy="6.991" r="3.325"/>
	<circle fill="#D8BAA5" cx="6.968" cy="6.99" r="3.294"/>
	<circle fill="#D7B8A5" cx="6.968" cy="6.988" r="3.264"/>
	<circle fill="#D7B7A4" cx="6.969" cy="6.988" r="3.233"/>
	<circle fill="#D6B5A3" cx="6.97" cy="6.987" r="3.203"/>
	<circle fill="#D5B3A3" cx="6.97" cy="6.986" r="3.173"/>
	<circle fill="#D5B2A2" cx="6.971" cy="6.984" r="3.142"/>
	<circle fill="#D4B0A1" cx="6.971" cy="6.983" r="3.111"/>
	<circle fill="#D3AEA0" cx="6.972" cy="6.983" r="3.081"/>
	<circle fill="#D2ACA0" cx="6.972" cy="6.982" r="3.051"/>
	<circle fill="#D2AB9F" cx="6.973" cy="6.98" r="3.02"/>
	<circle fill="#D1A99E" cx="6.973" cy="6.979" r="2.989"/>
	<circle fill="#D0A79E" cx="6.974" cy="6.979" r="2.959"/>
	<circle fill="#D0A69D" cx="6.974" cy="6.978" r="2.928"/>
	<circle fill="#CFA49C" cx="6.975" cy="6.976" r="2.898"/>
	<circle fill="#CEA29B" cx="6.975" cy="6.975" r="2.867"/>
	<circle fill="#CEA19B" cx="6.976" cy="6.974" r="2.836"/>
	<circle fill="#CD9F9A" cx="6.977" cy="6.973" r="2.806"/>
	<circle fill="#CC9D99" cx="6.977" cy="6.972" r="2.776"/>
	<circle fill="#CC9C99" cx="6.978" cy="6.971" r="2.745"/>
	<circle fill="#CB9A98" cx="6.978" cy="6.97" r="2.714"/>
	<circle fill="#CB9997" cx="6.979" cy="6.969" r="2.684"/>
	<circle fill="#CA9797" cx="6.979" cy="6.968" r="2.653"/>
	<circle fill="#C99596" cx="6.979" cy="6.967" r="2.623"/>
	<circle fill="#C99495" cx="6.98" cy="6.966" r="2.593"/>
	<circle fill="#C89295" cx="6.98" cy="6.965" r="2.562"/>
	<circle fill="#C79194" cx="6.981" cy="6.964" r="2.531"/>
	<circle fill="#C78F93" cx="6.981" cy="6.963" r="2.501"/>
	<circle fill="#C68E93" cx="6.982" cy="6.961" r="2.47"/>
	<circle fill="#C58C92" cx="6.982" cy="6.961" r="2.44"/>
	<circle fill="#C58B91" cx="6.983" cy="6.96" r="2.409"/>
	<circle fill="#C48991" cx="6.983" cy="6.959" r="2.379"/>
	<circle fill="#C48890" cx="6.984" cy="6.958" r="2.349"/>
	<circle fill="#C38690" cx="6.984" cy="6.957" r="2.318"/>
	<circle fill="#C3858F" cx="6.985" cy="6.956" r="2.288"/>
	<circle fill="#C2838E" cx="6.985" cy="6.955" r="2.257"/>
	<circle fill="#C1828E" cx="6.986" cy="6.954" r="2.226"/>
	<circle fill="#C1808D" cx="6.986" cy="6.953" r="2.196"/>
	<circle fill="#C07F8C" cx="6.987" cy="6.951" r="2.165"/>
	<circle fill="#C07D8C" cx="6.987" cy="6.95" r="2.135"/>
	<circle fill="#BF7C8B" cx="6.988" cy="6.95" r="2.104"/>
	<circle fill="#BF7A8A" cx="6.989" cy="6.948" r="2.074"/>
	<circle fill="#BE798A" cx="6.989" cy="6.947" r="2.043"/>
	<circle fill="#BD7789" cx="6.99" cy="6.946" r="2.013"/>
	<circle fill="#BD7689" cx="6.99" cy="6.946" r="1.982"/>
	<circle fill="#BC7488" cx="6.991" cy="6.945" r="1.952"/>
	<circle fill="#BC7387" cx="6.991" cy="6.943" r="1.921"/>
	<circle fill="#BB7187" cx="6.992" cy="6.942" r="1.891"/>
	<circle fill="#BB7086" cx="6.992" cy="6.942" r="1.86"/>
	<circle fill="#BA6E86" cx="6.993" cy="6.94" r="1.83"/>
	<circle fill="#BA6D85" cx="6.993" cy="6.939" r="1.799"/>
</g>
</svg>
