<?xml version="1.0" encoding="utf-8"?>
<!-- Generator: Adobe Illustrator 15.0.0, SVG Export Plug-In . SVG Version: 6.00 Build 0)  -->
<!DOCTYPE svg PUBLIC "-//W3C//DTD SVG 1.1//EN" "http://www.w3.org/Graphics/SVG/1.1/DTD/svg11.dtd">
<svg version="1.1" id="Layer_1" xmlns="http://www.w3.org/2000/svg" xmlns:xlink="http://www.w3.org/1999/xlink" x="0px" y="0px"
	 width="14px" height="14px" viewBox="0 0 14 14" enable-background="new 0 0 14 14" xml:space="preserve">
<g>
	<circle fill="#767B87" fill-opacity="0.6" stroke="#767B87" stroke-miterlimit="10" cx="7" cy="7" r="6"/>
	
		<circle fill="#A69E98" fill-opacity="0.8" stroke="#767B87" stroke-width="0.5" stroke-miterlimit="10" cx="6.981" cy="7" r="4.8"/>
	<circle fill="#E0CBAC" cx="6.963" cy="7" r="3.6"/>
	<circle fill="#DDCAAB" cx="6.963" cy="6.999" r="3.569"/>
	<circle fill="#DBC8AA" cx="6.964" cy="6.998" r="3.539"/>
	<circle fill="#D9C6AA" cx="6.964" cy="6.997" r="3.508"/>
	<circle fill="#D7C4A9" cx="6.965" cy="6.996" r="3.478"/>
	<circle fill="#D5C3A8" cx="6.965" cy="6.995" r="3.447"/>
	<circle fill="#D3C1A7" cx="6.966" cy="6.994" r="3.417"/>
	<circle fill="#D1BFA7" cx="6.967" cy="6.993" r="3.386"/>
	<circle fill="#CEBDA6" cx="6.967" cy="6.992" r="3.356"/>
	<circle fill="#CCBCA5" cx="6.968" cy="6.991" r="3.325"/>
	<circle fill="#CABAA5" cx="6.968" cy="6.99" r="3.294"/>
	<circle fill="#C8B9A4" cx="6.968" cy="6.988" r="3.264"/>
	<circle fill="#C6B7A3" cx="6.969" cy="6.988" r="3.233"/>
	<circle fill="#C5B6A2" cx="6.97" cy="6.987" r="3.203"/>
	<circle fill="#C3B4A2" cx="6.97" cy="6.986" r="3.173"/>
	<circle fill="#C1B2A1" cx="6.971" cy="6.984" r="3.142"/>
	<circle fill="#BFB1A0" cx="6.971" cy="6.983" r="3.111"/>
	<circle fill="#BDAFA0" cx="6.972" cy="6.983" r="3.081"/>
	<circle fill="#BBAE9F" cx="6.972" cy="6.982" r="3.051"/>
	<circle fill="#B9AD9E" cx="6.973" cy="6.98" r="3.02"/>
	<circle fill="#B7AB9E" cx="6.973" cy="6.979" r="2.989"/>
	<circle fill="#B5AA9D" cx="6.974" cy="6.979" r="2.959"/>
	<circle fill="#B4A89D" cx="6.974" cy="6.978" r="2.928"/>
	<circle fill="#B2A79C" cx="6.975" cy="6.976" r="2.898"/>
	<circle fill="#B0A59B" cx="6.975" cy="6.975" r="2.867"/>
	<circle fill="#AEA49B" cx="6.976" cy="6.974" r="2.836"/>
	<circle fill="#ACA39A" cx="6.977" cy="6.973" r="2.806"/>
	<circle fill="#ABA199" cx="6.977" cy="6.972" r="2.776"/>
	<circle fill="#A9A099" cx="6.978" cy="6.971" r="2.745"/>
	<circle fill="#A79E98" cx="6.978" cy="6.97" r="2.714"/>
	<circle fill="#A59D98" cx="6.979" cy="6.969" r="2.684"/>
	<circle fill="#A39C97" cx="6.979" cy="6.968" r="2.653"/>
	<circle fill="#A29A96" cx="6.979" cy="6.967" r="2.623"/>
	<circle fill="#A09996" cx="6.98" cy="6.966" r="2.593"/>
	<circle fill="#9E9895" cx="6.98" cy="6.965" r="2.562"/>
	<circle fill="#9D9795" cx="6.981" cy="6.964" r="2.531"/>
	<circle fill="#9B9594" cx="6.981" cy="6.963" r="2.501"/>
	<circle fill="#999493" cx="6.982" cy="6.961" r="2.47"/>
	<circle fill="#979393" cx="6.982" cy="6.961" r="2.44"/>
	<circle fill="#969292" cx="6.983" cy="6.96" r="2.409"/>
	<circle fill="#949092" cx="6.983" cy="6.959" r="2.379"/>
	<circle fill="#938F91" cx="6.984" cy="6.958" r="2.349"/>
	<circle fill="#918E91" cx="6.984" cy="6.957" r="2.318"/>
	<circle fill="#8F8D90" cx="6.985" cy="6.956" r="2.288"/>
	<circle fill="#8E8C8F" cx="6.985" cy="6.955" r="2.257"/>
	<circle fill="#8C8A8F" cx="6.986" cy="6.954" r="2.226"/>
	<circle fill="#8A898E" cx="6.986" cy="6.953" r="2.196"/>
	<circle fill="#89888E" cx="6.987" cy="6.951" r="2.165"/>
	<circle fill="#87878D" cx="6.987" cy="6.95" r="2.135"/>
	<circle fill="#86868D" cx="6.988" cy="6.95" r="2.104"/>
	<circle fill="#84858C" cx="6.989" cy="6.948" r="2.074"/>
	<circle fill="#83848C" cx="6.989" cy="6.947" r="2.043"/>
	<circle fill="#81828B" cx="6.99" cy="6.946" r="2.013"/>
	<circle fill="#80818A" cx="6.99" cy="6.946" r="1.982"/>
	<circle fill="#7E808A" cx="6.991" cy="6.945" r="1.952"/>
	<circle fill="#7C7F89" cx="6.991" cy="6.943" r="1.921"/>
	<circle fill="#7B7E89" cx="6.992" cy="6.942" r="1.891"/>
	<circle fill="#797D88" cx="6.992" cy="6.942" r="1.86"/>
	<circle fill="#787C88" cx="6.993" cy="6.94" r="1.83"/>
	<circle fill="#767B87" cx="6.993" cy="6.939" r="1.799"/>
</g>
</svg>
