<?xml version="1.0" encoding="utf-8"?>
<!-- Generator: Adobe Illustrator 18.1.1, SVG Export Plug-In . SVG Version: 6.00 Build 0)  -->
<svg version="1.1" id="Layer_1" xmlns="http://www.w3.org/2000/svg" xmlns:xlink="http://www.w3.org/1999/xlink" x="0px" y="0px"
	 viewBox="-118 66 14 14" enable-background="new -118 66 14 14" xml:space="preserve">
<circle fill="#B1B1A1" fill-opacity="0.6" stroke="#B1B1A1" stroke-miterlimit="10" stroke-opacity="0.5" cx="-111" cy="73" r="6"/>
<circle fill="#96A39B" fill-opacity="0.8" stroke="#4D858D" stroke-width="0.5" stroke-miterlimit="10" cx="-111" cy="73" r="4.8"/>
<circle fill="#E0CBAC" cx="-111" cy="73" r="3.6"/>
<circle fill="#DDCAAB" cx="-111" cy="73" r="3.6"/>
<circle fill="#DAC8AB" cx="-111" cy="73" r="3.5"/>
<circle fill="#D8C7AA" cx="-111" cy="73" r="3.5"/>
<circle fill="#D5C5A9" cx="-111" cy="73" r="3.5"/>
<circle fill="#D2C4A9" cx="-111" cy="73" r="3.4"/>
<circle fill="#D0C2A8" cx="-111" cy="73" r="3.4"/>
<circle fill="#CDC1A8" cx="-111" cy="73" r="3.4"/>
<circle fill="#CBBFA7" cx="-111" cy="73" r="3.4"/>
<circle fill="#C8BEA6" cx="-111" cy="73" r="3.3"/>
<circle fill="#C5BCA6" cx="-111" cy="73" r="3.3"/>
<circle fill="#C3BBA5" cx="-111" cy="73" r="3.3"/>
<circle fill="#C0BAA5" cx="-111" cy="73" r="3.2"/>
<circle fill="#BEB8A4" cx="-111" cy="73" r="3.2"/>
<circle fill="#BBB7A3" cx="-111" cy="73" r="3.2"/>
<circle fill="#B9B5A3" cx="-111" cy="73" r="3.1"/>
<circle fill="#B6B4A2" cx="-111" cy="73" r="3.1"/>
<circle fill="#B4B3A2" cx="-111" cy="73" r="3.1"/>
<circle fill="#B1B1A1" cx="-111" cy="73" r="3.1"/>
<circle fill="#AFB0A1" cx="-111" cy="73" r="3"/>
<circle fill="#ACAFA0" cx="-111" cy="73" r="3"/>
<circle fill="#AAAE9F" cx="-111" cy="73" r="3"/>
<circle fill="#A7AC9F" cx="-111" cy="73" r="2.9"/>
<circle fill="#A5AB9E" cx="-111" cy="73" r="2.9"/>
<circle fill="#A0A99D" cx="-111" cy="73" r="2.8"/>
<circle fill="#9EA79D" cx="-111" cy="73" r="2.8"/>
<circle fill="#9BA69C" cx="-111" cy="73" r="2.8"/>
<circle fill="#99A59C" cx="-111" cy="73" r="2.7"/>
<circle fill="#97A49B" cx="-111" cy="73" r="2.7"/>
<circle fill="#94A39B" cx="-111" cy="73" r="2.7"/>
<circle fill="#92A19A" cx="-111" cy="73" r="2.7"/>
<circle fill="#90A09A" cx="-111" cy="73" r="2.6"/>
<circle fill="#8D9F99" cx="-111" cy="73" r="2.6"/>
<circle fill="#8B9E99" cx="-111" cy="73" r="2.6"/>
<circle fill="#899D98" cx="-111" cy="73" r="2.5"/>
<circle fill="#869C98" cx="-111" cy="73" r="2.5"/>
<circle fill="#849B97" cx="-111" cy="73" r="2.5"/>
<circle fill="#829A97" cx="-111" cy="73" r="2.4"/>
<circle fill="#7F9996" cx="-111" cy="73" r="2.4"/>
<circle fill="#7D9896" cx="-111" cy="73" r="2.4"/>
<circle fill="#7B9795" cx="-111" cy="73" r="2.3"/>
<circle fill="#799695" cx="-111" cy="73" r="2.3"/>
<circle fill="#769594" cx="-111" cy="73" r="2.3"/>
<circle fill="#749394" cx="-111" cy="73" r="2.3"/>
<circle fill="#729294" cx="-111" cy="73" r="2.2"/>
<circle fill="#6F9293" cx="-111" cy="73" r="2.2"/>
<circle fill="#6D9193" cx="-111" cy="73" r="2.2"/>
<circle fill="#6A9092" cx="-111" cy="72.9" r="2.1"/>
<circle fill="#688F92" cx="-111" cy="72.9" r="2.1"/>
<circle fill="#658E91" cx="-111" cy="72.9" r="2.1"/>
<circle fill="#638D91" cx="-111" cy="72.9" r="2"/>
<circle fill="#608C90" cx="-111" cy="72.9" r="2"/>
<circle fill="#5E8B90" cx="-111" cy="72.9" r="2"/>
<circle fill="#5B8A8F" cx="-111" cy="72.9" r="2"/>
<circle fill="#58898F" cx="-111" cy="72.9" r="1.9"/>
</svg>
