<?xml version="1.0" encoding="utf-8"?>
<!-- Generator: Adobe Illustrator 15.0.0, SVG Export Plug-In . SVG Version: 6.00 Build 0)  -->
<!DOCTYPE svg PUBLIC "-//W3C//DTD SVG 1.1//EN" "http://www.w3.org/Graphics/SVG/1.1/DTD/svg11.dtd">
<svg version="1.1" id="Layer_1" xmlns="http://www.w3.org/2000/svg" xmlns:xlink="http://www.w3.org/1999/xlink" x="0px" y="0px"
	 width="14px" height="14px" viewBox="0 0 14 14" enable-background="new 0 0 14 14" xml:space="preserve">
<g>
	<circle fill="#4D858D" fill-opacity="0.6" stroke="#4D858D" stroke-miterlimit="10" cx="7" cy="7" r="6"/>
	
		<circle fill="#96A39B" fill-opacity="0.8" stroke="#4D858D" stroke-width="0.5" stroke-miterlimit="10" cx="6.981" cy="7" r="4.8"/>
	<circle fill="#E0CBAC" cx="6.963" cy="7" r="3.6"/>
	<circle fill="#DDCAAB" cx="6.963" cy="6.999" r="3.569"/>
	<circle fill="#DAC8AB" cx="6.964" cy="6.998" r="3.539"/>
	<circle fill="#D8C7AA" cx="6.964" cy="6.997" r="3.508"/>
	<circle fill="#D5C5A9" cx="6.965" cy="6.996" r="3.478"/>
	<circle fill="#D2C4A9" cx="6.965" cy="6.995" r="3.447"/>
	<circle fill="#D0C2A8" cx="6.966" cy="6.994" r="3.417"/>
	<circle fill="#CDC1A8" cx="6.967" cy="6.993" r="3.386"/>
	<circle fill="#CBBFA7" cx="6.967" cy="6.992" r="3.356"/>
	<circle fill="#C8BEA6" cx="6.968" cy="6.991" r="3.325"/>
	<circle fill="#C5BCA6" cx="6.968" cy="6.99" r="3.294"/>
	<circle fill="#C3BBA5" cx="6.968" cy="6.988" r="3.264"/>
	<circle fill="#C0BAA5" cx="6.969" cy="6.988" r="3.233"/>
	<circle fill="#BEB8A4" cx="6.97" cy="6.987" r="3.203"/>
	<circle fill="#BBB7A3" cx="6.97" cy="6.986" r="3.173"/>
	<circle fill="#B9B5A3" cx="6.971" cy="6.984" r="3.142"/>
	<circle fill="#B6B4A2" cx="6.971" cy="6.983" r="3.111"/>
	<circle fill="#B4B3A2" cx="6.972" cy="6.983" r="3.081"/>
	<circle fill="#B1B1A1" cx="6.972" cy="6.982" r="3.051"/>
	<circle fill="#AFB0A1" cx="6.973" cy="6.98" r="3.02"/>
	<circle fill="#ACAFA0" cx="6.973" cy="6.979" r="2.989"/>
	<circle fill="#AAAE9F" cx="6.974" cy="6.979" r="2.959"/>
	<circle fill="#A7AC9F" cx="6.974" cy="6.978" r="2.928"/>
	<circle fill="#A5AB9E" cx="6.975" cy="6.976" r="2.898"/>
	<circle fill="#A3AA9E" cx="6.975" cy="6.975" r="2.867"/>
	<circle fill="#A0A99D" cx="6.976" cy="6.974" r="2.836"/>
	<circle fill="#9EA79D" cx="6.977" cy="6.973" r="2.806"/>
	<circle fill="#9BA69C" cx="6.977" cy="6.972" r="2.776"/>
	<circle fill="#99A59C" cx="6.978" cy="6.971" r="2.745"/>
	<circle fill="#97A49B" cx="6.978" cy="6.97" r="2.714"/>
	<circle fill="#94A39B" cx="6.979" cy="6.969" r="2.684"/>
	<circle fill="#92A19A" cx="6.979" cy="6.968" r="2.653"/>
	<circle fill="#90A09A" cx="6.979" cy="6.967" r="2.623"/>
	<circle fill="#8D9F99" cx="6.98" cy="6.966" r="2.593"/>
	<circle fill="#8B9E99" cx="6.98" cy="6.965" r="2.562"/>
	<circle fill="#899D98" cx="6.981" cy="6.964" r="2.531"/>
	<circle fill="#869C98" cx="6.981" cy="6.963" r="2.501"/>
	<circle fill="#849B97" cx="6.982" cy="6.961" r="2.47"/>
	<circle fill="#829A97" cx="6.982" cy="6.961" r="2.44"/>
	<circle fill="#7F9996" cx="6.983" cy="6.96" r="2.409"/>
	<circle fill="#7D9896" cx="6.983" cy="6.959" r="2.379"/>
	<circle fill="#7B9795" cx="6.984" cy="6.958" r="2.349"/>
	<circle fill="#799695" cx="6.984" cy="6.957" r="2.318"/>
	<circle fill="#769594" cx="6.985" cy="6.956" r="2.288"/>
	<circle fill="#749394" cx="6.985" cy="6.955" r="2.257"/>
	<circle fill="#729294" cx="6.986" cy="6.954" r="2.226"/>
	<circle fill="#6F9293" cx="6.986" cy="6.953" r="2.196"/>
	<circle fill="#6D9193" cx="6.987" cy="6.951" r="2.165"/>
	<circle fill="#6A9092" cx="6.987" cy="6.95" r="2.135"/>
	<circle fill="#688F92" cx="6.988" cy="6.95" r="2.104"/>
	<circle fill="#658E91" cx="6.989" cy="6.948" r="2.074"/>
	<circle fill="#638D91" cx="6.989" cy="6.947" r="2.043"/>
	<circle fill="#608C90" cx="6.99" cy="6.946" r="2.013"/>
	<circle fill="#5E8B90" cx="6.99" cy="6.946" r="1.982"/>
	<circle fill="#5B8A8F" cx="6.991" cy="6.945" r="1.952"/>
	<circle fill="#58898F" cx="6.991" cy="6.943" r="1.921"/>
	<circle fill="#56888F" cx="6.992" cy="6.942" r="1.891"/>
	<circle fill="#53878E" cx="6.992" cy="6.942" r="1.86"/>
	<circle fill="#50868E" cx="6.993" cy="6.94" r="1.83"/>
	<circle fill="#4D858D" cx="6.993" cy="6.939" r="1.799"/>
</g>
</svg>
