<?xml version="1.0" encoding="utf-8"?>
<!-- Generator: Adobe Illustrator 15.0.0, SVG Export Plug-In . SVG Version: 6.00 Build 0)  -->
<!DOCTYPE svg PUBLIC "-//W3C//DTD SVG 1.1//EN" "http://www.w3.org/Graphics/SVG/1.1/DTD/svg11.dtd">
<svg version="1.1" id="Layer_1" xmlns="http://www.w3.org/2000/svg" xmlns:xlink="http://www.w3.org/1999/xlink" x="0px" y="0px"
	 width="13.996px" height="14.109px" viewBox="-2.969 -3.025 13.996 14.109" enable-background="new -2.969 -3.025 13.996 14.109"
	 xml:space="preserve">
<g>
	<circle fill="#E17C69" fill-opacity="0.6" stroke="#E17C69" stroke-width="1.2" stroke-miterlimit="10" cx="4" cy="4" r="6"/>
	
		<circle fill="#E0A48B" fill-opacity="0.8" stroke="#E17C69" stroke-width="0.6" stroke-miterlimit="10" cx="3.981" cy="4" r="4.8"/>
	<circle fill="#DFCBAC" cx="3.963" cy="4" r="3.6"/>
	<circle fill="#DFCAAB" cx="3.963" cy="3.999" r="3.569"/>
	<path fill="#DFC8AA" d="M3.964,0.459c1.957,0,3.538,1.584,3.538,3.539c0,1.956-1.581,3.539-3.538,3.539
		c-1.956,0-3.54-1.583-3.54-3.539C0.424,2.043,2.008,0.459,3.964,0.459z"/>
	<circle fill="#DFC7A9" cx="3.964" cy="3.997" r="3.508"/>
	<circle fill="#DFC6A7" cx="3.965" cy="3.996" r="3.478"/>
	<circle fill="#DFC4A6" cx="3.965" cy="3.995" r="3.447"/>
	<circle fill="#DFC3A5" cx="3.966" cy="3.994" r="3.417"/>
	<circle fill="#DFC2A4" cx="3.967" cy="3.993" r="3.386"/>
	<circle fill="#DFC0A3" cx="3.967" cy="3.991" r="3.355"/>
	<circle fill="#DFBFA2" cx="3.968" cy="3.991" r="3.325"/>
	<circle fill="#DFBEA1" cx="3.968" cy="3.99" r="3.294"/>
	<circle fill="#DFBCA0" cx="3.968" cy="3.988" r="3.264"/>
	<circle fill="#DFBB9E" cx="3.969" cy="3.988" r="3.233"/>
	<circle fill="#DFBA9D" cx="3.97" cy="3.987" r="3.203"/>
	<circle fill="#DFB89C" cx="3.97" cy="3.986" r="3.173"/>
	<circle fill="#E0B79B" cx="3.971" cy="3.984" r="3.142"/>
	<circle fill="#E0B69A" cx="3.971" cy="3.983" r="3.111"/>
	<circle fill="#E0B499" cx="3.972" cy="3.983" r="3.081"/>
	<circle fill="#E0B398" cx="3.973" cy="3.981" r="3.05"/>
	<circle fill="#E0B296" cx="3.972" cy="3.98" r="3.02"/>
	<circle fill="#E0B095" cx="3.973" cy="3.979" r="2.989"/>
	<circle fill="#E0AF94" cx="3.974" cy="3.979" r="2.959"/>
	<circle fill="#E0AE93" cx="3.974" cy="3.977" r="2.928"/>
	<circle fill="#E0AC92" cx="3.975" cy="3.976" r="2.897"/>
	<circle fill="#E0AB91" cx="3.975" cy="3.975" r="2.867"/>
	<circle fill="#E0AA90" cx="3.976" cy="3.974" r="2.836"/>
	<circle fill="#E0A88E" cx="3.977" cy="3.973" r="2.806"/>
	<circle fill="#E0A78D" cx="3.977" cy="3.972" r="2.776"/>
	<circle fill="#E0A68C" cx="3.978" cy="3.971" r="2.745"/>
	<circle fill="#E0A48B" cx="3.979" cy="3.971" r="2.715"/>
	<circle fill="#E0A38A" cx="3.979" cy="3.969" r="2.684"/>
	<circle fill="#E0A189" cx="3.979" cy="3.968" r="2.653"/>
	<circle fill="#E0A088" cx="3.979" cy="3.967" r="2.623"/>
	<circle fill="#E09F87" cx="3.979" cy="3.966" r="2.593"/>
	<circle fill="#E09D85" cx="3.98" cy="3.965" r="2.562"/>
	<circle fill="#E09C84" cx="3.98" cy="3.964" r="2.531"/>
	<circle fill="#E09B83" cx="3.981" cy="3.963" r="2.501"/>
	<circle fill="#E09982" cx="3.982" cy="3.961" r="2.47"/>
	<circle fill="#E09881" cx="3.982" cy="3.96" r="2.44"/>
	<circle fill="#E09780" cx="3.983" cy="3.96" r="2.409"/>
	<circle fill="#E0957F" cx="3.983" cy="3.959" r="2.379"/>
	<circle fill="#E0947D" cx="3.984" cy="3.958" r="2.348"/>
	<circle fill="#E0937C" cx="3.984" cy="3.957" r="2.318"/>
	<circle fill="#E0917B" cx="3.984" cy="3.956" r="2.287"/>
	<circle fill="#E0907A" cx="3.985" cy="3.955" r="2.256"/>
	<circle fill="#E18F79" cx="3.986" cy="3.954" r="2.226"/>
	<circle fill="#E18D78" cx="3.987" cy="3.953" r="2.196"/>
	<circle fill="#E18C77" cx="3.987" cy="3.952" r="2.166"/>
	<circle fill="#E18B75" cx="3.988" cy="3.95" r="2.135"/>
	<circle fill="#E18974" cx="3.988" cy="3.949" r="2.104"/>
	<circle fill="#E18873" cx="3.988" cy="3.948" r="2.074"/>
	<circle fill="#E18772" cx="3.989" cy="3.947" r="2.043"/>
	<circle fill="#E18571" cx="3.989" cy="3.946" r="2.013"/>
	<circle fill="#E18470" cx="3.99" cy="3.945" r="1.982"/>
	<circle fill="#E1836F" cx="3.991" cy="3.945" r="1.952"/>
	<circle fill="#E1816E" cx="3.991" cy="3.943" r="1.921"/>
	<circle fill="#E1806C" cx="3.992" cy="3.942" r="1.891"/>
	<circle fill="#E17F6B" cx="3.992" cy="3.941" r="1.86"/>
	<circle fill="#E17D6A" cx="3.993" cy="3.94" r="1.829"/>
	<circle fill="#E17C69" cx="3.993" cy="3.939" r="1.799"/>
</g>
</svg>
