<?xml version="1.0" encoding="utf-8"?>
<!-- Generator: Adobe Illustrator 15.0.0, SVG Export Plug-In . SVG Version: 6.00 Build 0)  -->
<!DOCTYPE svg PUBLIC "-//W3C//DTD SVG 1.1//EN" "http://www.w3.org/Graphics/SVG/1.1/DTD/svg11.dtd">
<svg version="1.1" id="Layer_1" xmlns="http://www.w3.org/2000/svg" xmlns:xlink="http://www.w3.org/1999/xlink" x="0px" y="0px"
	 width="11.87px" height="11.646px" viewBox="-1.961 -1.793 11.87 11.646" enable-background="new -1.961 -1.793 11.87 11.646"
	 xml:space="preserve">
<g>
	<circle fill="#E17C69" fill-opacity="0.6" stroke="#E17C69" stroke-miterlimit="10" cx="4" cy="4" r="5"/>
	<circle fill="#E0A48B" fill-opacity="0.8" stroke="#E17C69" stroke-width="0.5" stroke-miterlimit="10" cx="3.984" cy="4" r="4"/>
	<circle fill="#DFCBAC" cx="3.969" cy="4" r="3"/>
	<circle fill="#DFC9AB" cx="3.969" cy="3.999" r="2.97"/>
	<circle fill="#DFC8A9" cx="3.97" cy="3.998" r="2.938"/>
	<circle fill="#DFC6A8" cx="3.971" cy="3.997" r="2.908"/>
	<circle fill="#DFC5A7" cx="3.971" cy="3.996" r="2.877"/>
	<circle fill="#DFC3A5" cx="3.972" cy="3.995" r="2.847"/>
	<circle fill="#DFC1A4" cx="3.972" cy="3.994" r="2.816"/>
	<circle fill="#DFC0A2" cx="3.973" cy="3.993" r="2.786"/>
	<circle fill="#DFBEA1" cx="3.973" cy="3.992" r="2.755"/>
	<circle fill="#DFBCA0" cx="3.974" cy="3.991" r="2.724"/>
	<circle fill="#DFBB9E" cx="3.974" cy="3.99" r="2.694"/>
	<circle fill="#DFB99D" cx="3.974" cy="3.989" r="2.664"/>
	<circle fill="#DFB89C" cx="3.975" cy="3.987" r="2.633"/>
	<circle fill="#E0B69A" cx="3.976" cy="3.987" r="2.602"/>
	<circle fill="#E0B499" cx="3.976" cy="3.985" r="2.571"/>
	<circle fill="#E0B397" cx="3.977" cy="3.984" r="2.541"/>
	<circle fill="#E0B196" cx="3.977" cy="3.984" r="2.51"/>
	<circle fill="#E0B095" cx="3.978" cy="3.982" r="2.479"/>
	<circle fill="#E0AE93" cx="3.979" cy="3.981" r="2.449"/>
	<circle fill="#E0AC92" cx="3.979" cy="3.98" r="2.418"/>
	<circle fill="#E0AB91" cx="3.979" cy="3.979" r="2.388"/>
	<circle fill="#E0A98F" cx="3.979" cy="3.979" r="2.357"/>
	<circle fill="#E0A88E" cx="3.98" cy="3.977" r="2.327"/>
	<circle fill="#E0A68D" cx="3.98" cy="3.977" r="2.296"/>
	<circle fill="#E0A48B" cx="3.981" cy="3.975" r="2.265"/>
	<circle fill="#E0A38A" cx="3.981" cy="3.974" r="2.235"/>
	<circle fill="#E0A188" cx="3.982" cy="3.974" r="2.204"/>
	<circle fill="#E09F87" cx="3.982" cy="3.972" r="2.173"/>
	<circle fill="#E09E86" cx="3.983" cy="3.971" r="2.143"/>
	<circle fill="#E09C84" cx="3.984" cy="3.97" r="2.112"/>
	<circle fill="#E09B83" cx="3.984" cy="3.969" r="2.082"/>
	<circle fill="#E09982" cx="3.985" cy="3.968" r="2.051"/>
	<circle fill="#E09780" cx="3.985" cy="3.967" r="2.02"/>
	<circle fill="#E0967F" cx="3.985" cy="3.966" r="1.989"/>
	<circle fill="#E0947E" cx="3.986" cy="3.965" r="1.959"/>
	<circle fill="#E0937C" cx="3.987" cy="3.964" r="1.928"/>
	<circle fill="#E0917B" cx="3.987" cy="3.963" r="1.897"/>
	<circle fill="#E18F79" cx="3.988" cy="3.962" r="1.867"/>
	<circle fill="#E18E78" cx="3.989" cy="3.961" r="1.837"/>
	<circle fill="#E18C77" cx="3.989" cy="3.96" r="1.806"/>
	<circle fill="#E18B75" cx="3.989" cy="3.959" r="1.775"/>
	<circle fill="#E18974" cx="3.99" cy="3.958" r="1.745"/>
	<circle fill="#E18773" cx="3.99" cy="3.957" r="1.714"/>
	<circle fill="#E18671" cx="3.991" cy="3.955" r="1.683"/>
	<circle fill="#E18470" cx="3.992" cy="3.955" r="1.653"/>
	<circle fill="#E1826E" cx="3.992" cy="3.954" r="1.622"/>
	<circle fill="#E1816D" cx="3.992" cy="3.952" r="1.592"/>
	<circle fill="#E17F6C" cx="3.993" cy="3.951" r="1.561"/>
	<circle fill="#E17E6A" cx="3.994" cy="3.95" r="1.53"/>
	<circle fill="#E17C69" cx="3.994" cy="3.949" r="1.5"/>
</g>
</svg>
