<?xml version="1.0" encoding="utf-8"?>
<!-- Generator: Adobe Illustrator 15.0.0, SVG Export Plug-In . SVG Version: 6.00 Build 0)  -->
<!DOCTYPE svg PUBLIC "-//W3C//DTD SVG 1.1//EN" "http://www.w3.org/Graphics/SVG/1.1/DTD/svg11.dtd">
<svg version="1.1" id="Layer_1" xmlns="http://www.w3.org/2000/svg" xmlns:xlink="http://www.w3.org/1999/xlink" x="0px" y="0px"
	 width="14px" height="14px" viewBox="0 0 14 14" enable-background="new 0 0 14 14" xml:space="preserve">
<g>
	<circle fill="#A081B1" fill-opacity="0.6" stroke="#A081B1" stroke-miterlimit="10" cx="7" cy="7" r="6"/>
	
		<circle fill="#BEA4B1" fill-opacity="0.8" stroke="#A081B1" stroke-width="0.5" stroke-miterlimit="10" cx="6.981" cy="7" r="4.8"/>
	<circle fill="#E0CBAC" cx="6.963" cy="7" r="3.6"/>
	<circle fill="#DECAAC" cx="6.963" cy="6.999" r="3.569"/>
	<circle fill="#DDC9AD" cx="6.964" cy="6.998" r="3.539"/>
	<circle fill="#DCC7AD" cx="6.964" cy="6.997" r="3.508"/>
	<circle fill="#DBC6AD" cx="6.965" cy="6.996" r="3.478"/>
	<circle fill="#DAC5AD" cx="6.965" cy="6.995" r="3.447"/>
	<circle fill="#D8C3AE" cx="6.966" cy="6.994" r="3.417"/>
	<circle fill="#D7C2AE" cx="6.967" cy="6.993" r="3.386"/>
	<circle fill="#D6C1AE" cx="6.967" cy="6.992" r="3.356"/>
	<circle fill="#D5BFAE" cx="6.968" cy="6.991" r="3.325"/>
	<circle fill="#D4BEAF" cx="6.968" cy="6.99" r="3.294"/>
	<circle fill="#D3BDAF" cx="6.968" cy="6.988" r="3.264"/>
	<circle fill="#D2BBAF" cx="6.969" cy="6.988" r="3.233"/>
	<circle fill="#D0BAAF" cx="6.97" cy="6.987" r="3.203"/>
	<circle fill="#CFB9AF" cx="6.97" cy="6.986" r="3.173"/>
	<circle fill="#CEB7B0" cx="6.971" cy="6.984" r="3.142"/>
	<circle fill="#CDB6B0" cx="6.971" cy="6.983" r="3.111"/>
	<circle fill="#CCB5B0" cx="6.972" cy="6.983" r="3.081"/>
	<circle fill="#CBB3B0" cx="6.972" cy="6.982" r="3.051"/>
	<circle fill="#CAB2B0" cx="6.973" cy="6.98" r="3.02"/>
	<circle fill="#C9B1B0" cx="6.973" cy="6.979" r="2.989"/>
	<circle fill="#C7AFB0" cx="6.974" cy="6.979" r="2.959"/>
	<circle fill="#C6AEB0" cx="6.974" cy="6.978" r="2.928"/>
	<circle fill="#C5ADB0" cx="6.975" cy="6.976" r="2.898"/>
	<circle fill="#C4ABB1" cx="6.975" cy="6.975" r="2.867"/>
	<circle fill="#C3AAB1" cx="6.976" cy="6.974" r="2.836"/>
	<circle fill="#C2A9B1" cx="6.977" cy="6.973" r="2.806"/>
	<circle fill="#C1A7B1" cx="6.977" cy="6.972" r="2.776"/>
	<circle fill="#C0A6B1" cx="6.978" cy="6.971" r="2.745"/>
	<circle fill="#BFA5B1" cx="6.978" cy="6.97" r="2.714"/>
	<circle fill="#BDA4B1" cx="6.979" cy="6.969" r="2.684"/>
	<circle fill="#BCA2B1" cx="6.979" cy="6.968" r="2.653"/>
	<circle fill="#BBA1B1" cx="6.979" cy="6.967" r="2.623"/>
	<circle fill="#BAA0B1" cx="6.98" cy="6.966" r="2.593"/>
	<circle fill="#B99EB1" cx="6.98" cy="6.965" r="2.562"/>
	<circle fill="#B89DB1" cx="6.981" cy="6.964" r="2.531"/>
	<circle fill="#B79CB1" cx="6.981" cy="6.963" r="2.501"/>
	<circle fill="#B69BB1" cx="6.982" cy="6.961" r="2.47"/>
	<circle fill="#B59AB1" cx="6.982" cy="6.961" r="2.44"/>
	<circle fill="#B498B1" cx="6.983" cy="6.96" r="2.409"/>
	<circle fill="#B397B1" cx="6.983" cy="6.959" r="2.379"/>
	<circle fill="#B296B1" cx="6.984" cy="6.958" r="2.349"/>
	<circle fill="#B195B1" cx="6.984" cy="6.957" r="2.318"/>
	<circle fill="#B093B1" cx="6.985" cy="6.956" r="2.288"/>
	<circle fill="#AF92B1" cx="6.985" cy="6.955" r="2.257"/>
	<circle fill="#AE91B1" cx="6.986" cy="6.954" r="2.226"/>
	<circle fill="#AD90B1" cx="6.986" cy="6.953" r="2.196"/>
	<circle fill="#AC8FB1" cx="6.987" cy="6.951" r="2.165"/>
	<circle fill="#AB8EB1" cx="6.987" cy="6.95" r="2.135"/>
	<circle fill="#AA8CB1" cx="6.988" cy="6.95" r="2.104"/>
	<circle fill="#A98BB1" cx="6.989" cy="6.948" r="2.074"/>
	<circle fill="#A88AB1" cx="6.989" cy="6.947" r="2.043"/>
	<circle fill="#A789B1" cx="6.99" cy="6.946" r="2.013"/>
	<circle fill="#A688B1" cx="6.99" cy="6.946" r="1.982"/>
	<circle fill="#A587B1" cx="6.991" cy="6.945" r="1.952"/>
	<circle fill="#A486B1" cx="6.991" cy="6.943" r="1.921"/>
	<circle fill="#A384B1" cx="6.992" cy="6.942" r="1.891"/>
	<circle fill="#A283B1" cx="6.992" cy="6.942" r="1.86"/>
	<circle fill="#A182B1" cx="6.993" cy="6.94" r="1.83"/>
	<circle fill="#A081B1" cx="6.993" cy="6.939" r="1.799"/>
</g>
</svg>
